<svg width="173" height="45" viewBox="0 0 173 45" fill="none" xmlns="http://www.w3.org/2000/svg">
<path d="M32.3599 44.44C32.3599 44.19 27.1699 43.99 20.7599 43.99C14.3499 43.99 9.15991 44.19 9.15991 44.44C9.15991 44.69 14.3499 44.89 20.7599 44.89C27.1699 44.89 32.3599 44.69 32.3599 44.44Z" fill="url(#paint0_radial_170_18)"/>
<path d="M37.61 19.32L20.76 36.18L3.9 19.32L0 23.22L20.76 43.98L41.51 23.22L37.61 19.32Z" fill="#005087"/>
<path d="M29.2001 8.48001C29.1301 8.60001 29.0401 8.72001 28.9301 8.82001C28.6201 9.11001 28.2501 9.25001 27.8101 9.25001C27.3701 9.25001 27.0101 9.11001 26.6901 8.84001C26.3801 8.57001 26.2101 8.24001 26.2001 7.85001C26.2101 7.03001 25.9001 6.32001 25.2601 5.71001C24.6001 5.10001 23.8401 4.80001 22.9601 4.80001C22.0701 4.83001 21.3001 5.14001 20.6801 5.74001C20.0701 6.38001 19.7801 7.09001 19.7901 7.86001C19.7701 8.25001 19.6101 8.58001 19.3001 8.85001C18.9901 9.13001 18.6201 9.26001 18.2101 9.26001C17.7601 9.26001 17.3801 9.12001 17.0701 8.83001C16.7601 8.54001 16.6001 8.19001 16.6001 7.77001C16.6001 7.35001 16.7601 7.02001 17.0701 6.73001C17.3801 6.44001 17.7601 6.30001 18.2101 6.30001C19.0701 6.30001 19.8101 6.02001 20.4201 5.45001C21.0401 4.89001 21.3701 4.20001 21.4001 3.40001C21.3801 2.85001 21.5801 2.44001 22.0001 2.15001C22.2001 2.03001 22.4001 1.95001 22.6101 1.90001L20.7201 0.0100098L18.7701 1.96001C19.5001 2.24001 20.0301 3.04001 19.7201 3.83001C19.4401 4.54001 18.7401 4.73001 18.0501 4.80001C17.2401 4.88001 16.5401 5.11001 15.9401 5.67001C15.2801 6.28001 14.9701 6.99001 15.0001 7.81001C15.0301 8.66001 15.3601 9.36001 15.9801 9.93001C16.6701 10.49 17.4401 10.77 18.2801 10.76C18.7501 10.79 19.2401 11.02 19.5101 11.41C19.8301 11.86 19.7401 12.45 19.8701 12.96C20.0101 13.5 20.3201 13.97 20.7201 14.34C21.3801 14.95 22.1601 15.24 23.0701 15.21C23.4901 15.22 23.8401 15.38 24.1401 15.67C24.4401 15.96 24.5801 16.3 24.5801 16.68C24.5801 17.1 24.4201 17.45 24.1101 17.74C23.8001 18.03 23.4201 18.17 22.9901 18.17C22.5601 18.17 22.1601 18.03 21.8501 17.74C21.5401 17.45 21.3801 17.1 21.3801 16.68C21.3801 15.88 21.0801 15.19 20.4701 14.63C19.9801 14.18 19.4001 13.88 18.7401 13.76C18.1201 13.66 17.4601 13.7 16.9901 13.21C16.5801 12.79 16.6401 12.24 16.5401 11.7C16.4301 11.1 16.1201 10.58 15.6701 10.16C15.1601 9.69001 14.5501 9.38001 13.8601 9.28001C13.2101 9.19001 12.5401 8.98001 12.1501 8.54001L3.11011 17.61L20.7201 35.22L38.3301 17.61L29.1901 8.47001L29.2001 8.48001ZM23.0901 13.71C22.6301 13.73 22.2301 13.59 21.9001 13.3C21.5701 13.01 21.4101 12.65 21.4101 12.22C21.4101 11.82 21.5701 11.47 21.8801 11.18C22.1901 10.89 22.5701 10.74 23.0201 10.74C23.4401 10.74 23.8001 10.88 24.1101 11.16C24.4201 11.44 24.5901 11.78 24.6001 12.16C24.5801 13.01 24.9001 13.73 25.5401 14.32C26.2001 14.93 26.9801 15.22 27.8901 15.19C28.3101 15.2 28.6601 15.36 28.9601 15.65C29.2601 15.94 29.4001 16.28 29.4001 16.66C29.4001 17.08 29.2401 17.43 28.9301 17.72C28.6201 18.01 28.2501 18.15 27.8101 18.15C27.3701 18.15 26.9801 18.01 26.6701 17.72C26.3601 17.43 26.2001 17.08 26.2001 16.66C26.2001 15.86 25.8901 15.17 25.2601 14.61C24.6501 14.03 23.9301 13.73 23.0801 13.7L23.0901 13.71ZM19.3301 26.65C19.0201 26.94 18.6501 27.08 18.2101 27.08C17.7701 27.08 17.3801 26.94 17.0701 26.65C16.7601 26.36 16.6001 26.02 16.6001 25.61C16.6001 24.79 16.3001 24.1 15.6901 23.54C15.0801 22.96 14.3501 22.66 13.4801 22.63C13.0201 22.65 12.6201 22.51 12.2901 22.22C11.9601 21.93 11.8001 21.57 11.8001 21.14C11.8001 20.74 11.9601 20.39 12.2701 20.1C12.5801 19.81 12.9501 19.67 13.3801 19.67C13.8101 19.67 14.1801 19.81 14.5001 20.09C14.8101 20.37 14.9801 20.71 14.9901 21.09C14.9701 21.94 15.2901 22.66 15.9301 23.25C16.5901 23.86 17.3701 24.15 18.2801 24.12C18.7001 24.13 19.0501 24.29 19.3501 24.58C19.6501 24.87 19.7901 25.21 19.7901 25.61C19.7901 26.01 19.6301 26.36 19.3201 26.65H19.3301ZM28.9301 22.19C28.6201 22.48 28.2501 22.62 27.8101 22.62C26.9601 22.62 26.2101 22.9 25.5501 23.47C25.0301 23.92 24.6501 24.55 24.6201 25.22C24.5801 26.01 24.4701 26.96 23.3401 27.18C22.3001 27.38 21.4001 26.56 21.4001 25.61V25.52C21.3701 24.72 21.0401 24.03 20.4201 23.47C19.8101 22.9 19.0801 22.62 18.2101 22.62C17.7601 22.62 17.3801 22.48 17.0701 22.19C16.7601 21.9 16.6001 21.55 16.6001 21.13C16.6001 20.71 16.7601 20.38 17.0701 20.09C17.3801 19.8 17.7601 19.66 18.2101 19.66C18.6301 19.66 18.9901 19.8 19.3001 20.07C19.6101 20.34 19.7801 20.67 19.7901 21.06C19.9001 23.82 23.2901 25.1 25.2901 23.2C25.9101 22.59 26.2201 21.88 26.2001 21.06C26.2101 20.67 26.3801 20.34 26.6901 20.07C27.0001 19.79 27.3701 19.66 27.8101 19.66C28.2501 19.66 28.6101 19.8 28.9301 20.09C29.2401 20.38 29.4001 20.72 29.4001 21.13C29.4001 21.54 29.2401 21.9 28.9301 22.19Z" fill="url(#paint1_radial_170_18)"/>
<path d="M171.223 23.9806C170.718 23.3006 169.929 22.7613 168.882 22.351C168.341 22.1517 167.847 21.9875 167.365 21.8703C166.894 21.753 166.4 21.6358 165.894 21.5186C165.106 21.3193 164.576 21.1082 164.306 20.862C164.035 20.6158 163.894 20.2875 163.894 19.8772C163.894 19.5958 163.976 19.3379 164.153 19.1151C164.329 18.8924 164.529 18.7165 164.765 18.5993C165.059 18.4586 165.329 18.3531 165.6 18.3062C165.871 18.2593 166.165 18.2358 166.494 18.2358C167.353 18.2358 168.188 18.4117 169 18.7634C169.694 19.0682 170.282 19.42 170.788 19.842V16.1255C170.247 15.9145 169.635 15.7386 169 15.5979C168.106 15.3986 167.212 15.3048 166.306 15.3048C164.506 15.3048 163.012 15.7738 161.812 16.7C160.612 17.6379 160.012 18.8572 160.012 20.3696C160.012 21.4834 160.259 22.4213 160.776 23.1599C161.282 23.8985 162.129 24.4965 163.306 24.9303C163.812 25.1178 164.365 25.282 164.953 25.4109C165.541 25.5399 166.094 25.6806 166.612 25.8213C167.023 25.9385 167.376 26.1144 167.682 26.3723C167.976 26.6185 168.129 26.9468 168.129 27.3571C168.129 27.7206 168.035 28.0137 167.859 28.2247C167.682 28.4475 167.459 28.6116 167.188 28.7406C166.965 28.8461 166.682 28.9282 166.329 28.9751C165.976 29.022 165.682 29.0454 165.471 29.0454C164.612 29.0454 163.718 28.8578 162.8 28.4944C161.953 28.1544 161.176 27.6737 160.471 27.064V30.9799C161.071 31.2378 161.718 31.4488 162.388 31.6364C163.271 31.8709 164.294 31.9881 165.447 31.9881C167.459 31.9881 169.059 31.4957 170.247 30.5226C171.435 29.5495 172.023 28.2599 172.023 26.6654C172.023 25.5516 171.765 24.6489 171.259 23.9689L171.223 23.9806Z" fill="#00305B"/>
<path d="M60.9529 22.0579C60.4118 21.8586 59.9059 21.6944 59.4235 21.5772C58.9529 21.46 58.4471 21.3427 57.9412 21.2138C57.1412 21.0144 56.6118 20.8034 56.3294 20.5572C56.0471 20.311 55.9176 19.9827 55.9176 19.5724C55.9176 19.291 56.0118 19.0331 56.1765 18.8103C56.3529 18.5876 56.5529 18.4117 56.8 18.2945C57.0941 18.1538 57.3765 18.0483 57.6471 18.0014C57.9176 17.9545 58.2118 17.931 58.5529 17.931C59.4235 17.931 60.2588 18.1069 61.0824 18.4586C61.9059 18.8103 62.6 19.2441 63.1647 19.76H63.2V15.9497C62.5647 15.68 61.8588 15.4572 61.0824 15.2931C60.1765 15.0938 59.2706 15 58.3647 15C56.5529 15 55.0353 15.469 53.8235 16.4069C52.6118 17.3448 52 18.5641 52 20.0765C52 21.1903 52.2588 22.1282 52.7765 22.8668C53.2941 23.6055 54.1412 24.2034 55.3294 24.6372C55.8471 24.8248 56.4 24.9772 56.9882 25.1179C57.5765 25.2468 58.1412 25.3875 58.6588 25.5282C59.0706 25.6454 59.4353 25.8213 59.7412 26.0792C60.0471 26.3372 60.1882 26.6654 60.1882 27.0641C60.1882 27.4275 60.0941 27.7089 59.9059 27.9316C59.7176 28.1544 59.4941 28.3185 59.2235 28.4475C59 28.553 58.7176 28.6351 58.3529 28.682C57.9882 28.7289 57.7059 28.7523 57.4824 28.7523C56.6118 28.7523 55.7176 28.5647 54.7882 28.2013C53.8588 27.8378 53.0118 27.3103 52.2471 26.6185H52.2235V30.593C52.8941 30.8861 53.6118 31.1323 54.3765 31.3433C55.2588 31.5778 56.2941 31.6951 57.4706 31.6951C59.5059 31.6951 61.1176 31.2026 62.3176 30.2296C63.5176 29.2565 64.1176 27.9668 64.1176 26.3606C64.1176 25.2468 63.8588 24.3441 63.3412 23.6641C62.8235 22.9841 62.0353 22.4331 60.9647 22.0344L60.9529 22.0579Z" fill="#0067AC"/>
<path d="M92.5999 15.5979H76.7999H75.047V24.8247L70.1646 15.5979H65.1646L65.1411 31.7185H68.6588L68.6705 20.4751L74.8588 31.7067H78.5646V18.6696H83.9529V31.7067H87.7999V18.6696H93.6941L92.5999 15.5979Z" fill="#0067AC"/>
<path d="M115.035 15.5979L111.2 31.7067H107.023L104.588 21.7413L102.223 31.7067H98.047L94.2117 15.5979H98.1646L100.247 26.4075L102.788 15.5979H106.565L108.976 26.4075L111.176 15.5979H115.023H115.035Z" fill="#00305B"/>
<path d="M129.706 23.6524C129.706 26.2551 129.047 28.3068 127.741 29.7958C126.435 31.2847 124.635 32.0351 122.353 32.0351C120.071 32.0351 118.271 31.2847 116.965 29.7723C115.659 28.2599 115.012 26.2199 115.012 23.6524C115.012 21.0848 115.659 19.0096 116.965 17.509C118.271 16.0083 120.059 15.2579 122.353 15.2579C124.647 15.2579 126.423 16.0083 127.741 17.4972C129.047 18.9979 129.706 21.0496 129.706 23.6524ZM125.776 23.6406C125.776 22.6793 125.682 21.8586 125.494 21.1903C125.306 20.522 125.059 19.9593 124.741 19.5255C124.412 19.08 124.047 18.7634 123.635 18.5758C123.223 18.3883 122.8 18.2945 122.365 18.2945C121.894 18.2945 121.471 18.3765 121.094 18.5641C120.718 18.74 120.353 19.0565 119.988 19.5138C119.682 19.9358 119.423 20.4869 119.235 21.1786C119.035 21.8703 118.941 22.691 118.941 23.6524C118.941 24.6137 119.035 25.4579 119.212 26.1144C119.4 26.771 119.647 27.3103 119.965 27.7558C120.294 28.2013 120.659 28.5178 121.071 28.7172C121.482 28.9047 121.918 28.9985 122.353 28.9985C122.788 28.9985 123.235 28.893 123.659 28.6937C124.082 28.4827 124.447 28.1661 124.753 27.7323C125.082 27.2634 125.329 26.7123 125.506 26.091C125.682 25.4696 125.765 24.6489 125.765 23.6406H125.776Z" fill="#00305B"/>
<path d="M145.388 31.7067H140.753L136.529 25.7978H135.165V31.7067H131.376V15.5979H137.471C138.306 15.5979 139.047 15.6565 139.671 15.762C140.294 15.8676 140.871 16.102 141.4 16.4538C141.941 16.8172 142.376 17.2862 142.694 17.8606C143.012 18.4234 143.176 19.1503 143.176 20.0179C143.176 21.2489 142.918 22.2572 142.388 23.0192C141.871 23.793 141.165 24.4027 140.294 24.8482L145.388 31.695V31.7067ZM139.259 20.5337C139.259 20.1351 139.188 19.7834 139.035 19.4903C138.894 19.1972 138.647 18.9744 138.306 18.8103C138.071 18.7048 137.8 18.6344 137.518 18.611C137.224 18.5875 136.859 18.5641 136.424 18.5641H135.153V22.902H136.247C136.776 22.902 137.224 22.8668 137.6 22.7965C137.965 22.7261 138.282 22.5854 138.541 22.3627C138.788 22.1634 138.965 21.9172 139.082 21.6358C139.2 21.3544 139.259 20.991 139.259 20.5337Z" fill="#00305B"/>
<path d="M159.624 31.7068H154.965L150.777 25.153L150.024 26.2551V31.695H146.165V15.5862H150.024V22.7379L154.929 15.5862H159.388L153.918 23.0661L159.624 31.7068Z" fill="#00305B"/>
<defs>
<radialGradient id="paint0_radial_170_18" cx="0" cy="0" r="1" gradientUnits="userSpaceOnUse" gradientTransform="translate(9.47991 43.4) scale(11.48 11.48)">
<stop stop-color="white"/>
<stop offset="1" stop-color="#005087"/>
</radialGradient>
<radialGradient id="paint1_radial_170_18" cx="0" cy="0" r="1" gradientUnits="userSpaceOnUse" gradientTransform="translate(20.7201 1.80001) scale(24.39 24.39)">
<stop stop-color="#BEE1C6"/>
<stop offset="0.12" stop-color="#B0D9C5"/>
<stop offset="0.33" stop-color="#8DC4C3"/>
<stop offset="0.62" stop-color="#55A3C0"/>
<stop offset="0.96" stop-color="#0876BC"/>
<stop offset="1" stop-color="#0072BC"/>
</radialGradient>
</defs>
</svg>
