<svg width="120" height="95" viewBox="0 0 120 95" fill="none" xmlns="http://www.w3.org/2000/svg">
<g clip-path="url(#clip0_161_83)">
<path d="M119.235 86.9339C118.729 86.2539 117.941 85.7146 116.894 85.3042C116.353 85.1049 115.859 84.9408 115.376 84.8235C114.906 84.7063 114.412 84.589 113.906 84.4718C113.118 84.2725 112.588 84.0615 112.318 83.8153C112.047 83.569 111.906 83.2408 111.906 82.8304C111.906 82.5491 111.988 82.2911 112.165 82.0684C112.341 81.8456 112.541 81.6698 112.776 81.5525C113.07 81.4118 113.341 81.3063 113.612 81.2594C113.882 81.2125 114.176 81.1891 114.506 81.1891C115.365 81.1891 116.2 81.3649 117.012 81.7166C117.706 82.0215 118.294 82.3732 118.8 82.7953V79.0787C118.259 78.8677 117.647 78.6918 117.012 78.5512C116.118 78.3518 115.223 78.2581 114.318 78.2581C112.518 78.2581 111.023 78.727 109.823 79.6532C108.623 80.5911 108.023 81.8104 108.023 83.3228C108.023 84.4366 108.27 85.3746 108.788 86.1132C109.294 86.8518 110.141 87.4497 111.318 87.8835C111.823 88.0711 112.376 88.2352 112.965 88.3642C113.553 88.4932 114.106 88.6338 114.623 88.7745C115.035 88.8918 115.388 89.0676 115.694 89.3256C115.988 89.5718 116.141 89.9 116.141 90.3104C116.141 90.6738 116.047 90.9669 115.87 91.178C115.694 91.4007 115.47 91.5649 115.2 91.6938C114.976 91.7993 114.694 91.8814 114.341 91.9283C113.988 91.9752 113.694 91.9986 113.482 91.9986C112.623 91.9986 111.729 91.8111 110.812 91.4476C109.965 91.1076 109.188 90.6269 108.482 90.0173V93.9331C109.082 94.191 109.729 94.4021 110.4 94.5897C111.282 94.8241 112.306 94.9414 113.459 94.9414C115.47 94.9414 117.07 94.449 118.259 93.4759C119.447 92.5028 120.035 91.2131 120.035 89.6187C120.035 88.5049 119.776 87.6021 119.27 86.9221L119.235 86.9339Z" fill="#00305B"/>
<path d="M8.96466 85.0111C8.42348 84.8118 7.9176 84.6477 7.43525 84.5304C6.96466 84.4132 6.45878 84.2959 5.95289 84.167C5.15289 83.9677 4.62348 83.7566 4.34113 83.5104C4.05878 83.2642 3.92937 82.9359 3.92937 82.5256C3.92937 82.2442 4.02348 81.9863 4.18819 81.7635C4.36466 81.5408 4.56466 81.3649 4.81172 81.2477C5.10584 81.107 5.38819 81.0015 5.65878 80.9546C5.92937 80.9077 6.22348 80.8842 6.56466 80.8842C7.43525 80.8842 8.27054 81.0601 9.09407 81.4118C9.9176 81.7635 10.6117 82.1973 11.1764 82.7132H11.2117V78.9029C10.5764 78.6332 9.87054 78.4105 9.09407 78.2463C8.18819 78.047 7.28231 77.9532 6.37642 77.9532C4.56466 77.9532 3.04701 78.4222 1.83525 79.3601C0.623483 80.298 0.0117188 81.5173 0.0117188 83.0297C0.0117188 84.1435 0.270542 85.0814 0.788189 85.8201C1.30584 86.5587 2.1529 87.1566 3.34113 87.5904C3.85878 87.778 4.41172 87.9304 4.99995 88.0711C5.58819 88.2001 6.15289 88.3407 6.67054 88.4814C7.08231 88.5987 7.44701 88.7745 7.75289 89.0325C8.05878 89.2904 8.19995 89.6187 8.19995 90.0173C8.19995 90.3807 8.10584 90.6621 7.9176 90.8849C7.72937 91.1076 7.50584 91.2718 7.23525 91.4007C7.01172 91.5062 6.72936 91.5883 6.36466 91.6352C5.99995 91.6821 5.7176 91.7055 5.49407 91.7055C4.62348 91.7055 3.72937 91.518 2.79995 91.1545C1.87054 90.7911 1.02348 90.2635 0.258778 89.5718H0.235248V93.5462C0.905836 93.8393 1.62348 94.0855 2.38819 94.2966C3.27054 94.531 4.30584 94.6483 5.48231 94.6483C7.5176 94.6483 9.12936 94.1559 10.3294 93.1828C11.5294 92.2097 12.1294 90.92 12.1294 89.3138C12.1294 88.2 11.8705 87.2973 11.3529 86.6173C10.8352 85.9373 10.047 85.3863 8.97642 84.9877L8.96466 85.0111Z" fill="#0067AC"/>
<path d="M40.6118 78.5512H24.8118H23.0588V87.778L18.1765 78.5512H13.1765L13.153 94.6717H16.6706L16.6824 83.4284L22.8706 94.66H26.5765V81.6229H31.9647V94.66H35.8118V81.6229H41.7059L40.6118 78.5512Z" fill="#0067AC"/>
<path d="M63.047 78.5512L59.2117 94.66H55.0353L52.6 84.6946L50.2353 94.66H46.0588L42.2235 78.5512H46.1765L48.2588 89.3607L50.8 78.5512H54.5765L56.9882 89.3607L59.1882 78.5512H63.0353H63.047Z" fill="#00305B"/>
<path d="M77.7176 86.6056C77.7176 89.2083 77.0587 91.26 75.7528 92.749C74.447 94.2379 72.647 94.9883 70.3646 94.9883C68.0823 94.9883 66.2823 94.2379 64.9764 92.7255C63.6705 91.2131 63.0234 89.1732 63.0234 86.6056C63.0234 84.038 63.6705 81.9629 64.9764 80.4622C66.2823 78.9615 68.0705 78.2112 70.3646 78.2112C72.6587 78.2112 74.4352 78.9615 75.7528 80.4505C77.0587 81.9511 77.7176 84.0028 77.7176 86.6056ZM73.7881 86.5939C73.7881 85.6325 73.694 84.8118 73.5058 84.1435C73.3176 83.4753 73.0705 82.9125 72.7528 82.4787C72.4234 82.0332 72.0587 81.7167 71.647 81.5291C71.2352 81.3415 70.8117 81.2477 70.3764 81.2477C69.9058 81.2477 69.4823 81.3298 69.1058 81.5173C68.7293 81.6932 68.3646 82.0097 67.9999 82.467C67.694 82.8891 67.4352 83.4401 67.247 84.1318C67.047 84.8235 66.9528 85.6442 66.9528 86.6056C66.9528 87.567 67.047 88.4111 67.2234 89.0676C67.4117 89.7242 67.6587 90.2635 67.9764 90.709C68.3058 91.1545 68.6705 91.4711 69.0823 91.6704C69.494 91.858 69.9293 91.9517 70.3646 91.9517C70.7999 91.9517 71.247 91.8462 71.6705 91.6469C72.094 91.4359 72.4587 91.1193 72.7646 90.6855C73.094 90.2166 73.3411 89.6656 73.5176 89.0442C73.694 88.4228 73.7764 87.6021 73.7764 86.5939H73.7881Z" fill="#00305B"/>
<path d="M93.3999 94.66H88.7646L84.5411 88.7511H83.1764V94.66H79.3882V78.5512H85.4823C86.3176 78.5512 87.0588 78.6098 87.6823 78.7153C88.3058 78.8208 88.8823 79.0553 89.4117 79.407C89.9529 79.7705 90.3882 80.2394 90.7058 80.8139C91.0235 81.3767 91.1882 82.1035 91.1882 82.9711C91.1882 84.2021 90.9294 85.2104 90.3999 85.9725C89.8823 86.7463 89.1764 87.3559 88.3058 87.8014L93.3999 94.6483V94.66ZM87.2705 83.487C87.2705 83.0884 87.1999 82.7366 87.047 82.4435C86.9058 82.1504 86.6588 81.9277 86.3176 81.7635C86.0823 81.658 85.8117 81.5877 85.5294 81.5642C85.2352 81.5408 84.8705 81.5173 84.4352 81.5173H83.1647V85.8552H84.2588C84.7882 85.8552 85.2352 85.8201 85.6117 85.7497C85.9764 85.6794 86.2941 85.5387 86.5529 85.3159C86.7999 85.1166 86.9764 84.8704 87.0941 84.589C87.2117 84.3077 87.2705 83.9442 87.2705 83.487Z" fill="#00305B"/>
<path d="M107.635 94.66H102.976L98.7882 88.1063L98.0352 89.2083V94.6483H94.1764V78.5394H98.0352V85.6911L102.941 78.5394H107.4L101.929 86.0194L107.635 94.66Z" fill="#00305B"/>
<path d="M77.6471 67.3547C77.6471 66.9795 69.753 66.663 60.0001 66.663C50.2471 66.663 42.353 66.9678 42.353 67.3547C42.353 67.7416 50.2589 68.0464 60.0001 68.0464C69.7413 68.0464 77.6471 67.7416 77.6471 67.3547Z" fill="url(#paint0_radial_161_83)"/>
<path d="M85.6354 29.2867L60.0001 54.8334L34.3648 29.2867L28.4236 35.1956L60.0001 66.663L91.5765 35.1956L85.6354 29.2867Z" fill="#005087"/>
<path d="M72.8353 12.8496C72.7294 13.0371 72.6 13.213 72.4235 13.3654C71.953 13.7992 71.3882 14.022 70.7294 14.022C70.0706 14.022 69.5059 13.8109 69.0353 13.4006C68.5647 12.9785 68.3059 12.4861 68.2824 11.8999C68.3059 10.6572 67.8353 9.57855 66.8588 8.65235C65.8588 7.72615 64.6941 7.26891 63.353 7.26891C61.9882 7.31581 60.8353 7.78477 59.8824 8.68752C58.953 9.66062 58.5059 10.7275 58.5294 11.8999C58.5059 12.4861 58.2588 12.9903 57.7765 13.4006C57.3059 13.8227 56.753 14.022 56.1177 14.022C55.4353 14.022 54.8588 13.7992 54.3882 13.3654C53.9177 12.9316 53.6706 12.3923 53.6706 11.7592C53.6706 11.1261 53.9059 10.622 54.3882 10.1882C54.8588 9.75441 55.4353 9.53165 56.1177 9.53165C57.4353 9.53165 58.553 9.10959 59.4706 8.25373C60.4235 7.39788 60.9177 6.36616 60.9647 5.14686C60.9412 4.31445 61.2471 3.68135 61.8824 3.25929C62.1882 3.0717 62.4941 2.95446 62.8 2.87239L59.9177 0.0117241L56.953 2.96619C58.0588 3.39998 58.8706 4.59583 58.4 5.80341C57.9765 6.88202 56.9059 7.1634 55.8588 7.26891C54.6353 7.39788 53.5647 7.73787 52.6471 8.59373C51.6471 9.51993 51.1765 10.5985 51.2235 11.8413C51.2706 13.1192 51.7765 14.1978 52.7177 15.0537C53.7647 15.9095 54.9294 16.3316 56.2235 16.3082C56.9412 16.3551 57.6824 16.7068 58.1059 17.3047C58.5882 17.9847 58.4588 18.8874 58.6588 19.6612C58.8706 20.4702 59.3294 21.1854 59.953 21.7481C60.953 22.6743 62.1412 23.1081 63.5294 23.0612C64.1647 23.0847 64.7059 23.3191 65.153 23.7529C65.6 24.1867 65.8235 24.7026 65.8235 25.2888C65.8235 25.9219 65.5882 26.4612 65.1177 26.895C64.6471 27.3288 64.0824 27.5515 63.4235 27.5515C62.7647 27.5515 62.1647 27.3288 61.6941 26.895C61.2235 26.4612 60.9882 25.9219 60.9882 25.2888C60.9882 24.0695 60.5294 23.0378 59.6 22.1819C58.8588 21.5019 57.9765 21.0329 56.9765 20.8688C56.0353 20.7164 55.0235 20.775 54.3059 20.0364C53.6824 19.3916 53.7647 18.5709 53.6235 17.7502C53.4588 16.8475 52.9765 16.0502 52.3059 15.4171C51.5294 14.702 50.6 14.233 49.553 14.0806C48.5647 13.9399 47.5412 13.6233 46.9412 12.9668L33.153 26.7074L59.9412 53.4031L86.7294 26.7074L72.8353 12.8613V12.8496ZM63.5412 20.7867C62.8353 20.8102 62.2353 20.5992 61.7294 20.1654C61.2353 19.7316 60.9765 19.1805 60.9765 18.524C60.9765 17.9144 61.2118 17.3868 61.6824 16.953C62.153 16.5192 62.7294 16.2964 63.4118 16.2964C64.0471 16.2964 64.6 16.5075 65.0706 16.9413C65.5412 17.375 65.7883 17.8792 65.8235 18.4654C65.8 19.7433 66.2706 20.8454 67.2471 21.7481C68.2471 22.6743 69.4353 23.1081 70.8235 23.0612C71.4588 23.0847 72 23.3191 72.4471 23.7529C72.8941 24.1867 73.1294 24.7026 73.1294 25.2888C73.1294 25.9219 72.8941 26.4612 72.4118 26.895C71.9412 27.3288 71.3765 27.5515 70.7177 27.5515C70.0588 27.5515 69.4588 27.3288 68.9765 26.895C68.5059 26.4612 68.2706 25.9219 68.2706 25.2888C68.2706 24.0695 67.8 23.0378 66.8471 22.1819C65.9177 21.3026 64.8118 20.8454 63.5294 20.7985L63.5412 20.7867ZM57.8235 40.4011C57.353 40.8349 56.7882 41.0576 56.1294 41.0576C55.4706 41.0576 54.8706 40.8349 54.4 40.4011C53.9294 39.9673 53.6824 39.4397 53.6824 38.8301C53.6824 37.5873 53.2235 36.5439 52.2941 35.688C51.3647 34.8087 50.2471 34.3515 48.9412 34.3046C48.2353 34.328 47.6353 34.117 47.1294 33.6832C46.6353 33.2494 46.3765 32.6984 46.3765 32.0418C46.3765 31.4322 46.6118 30.9163 47.0824 30.4708C47.553 30.037 48.1177 29.8143 48.7765 29.8143C49.4353 29.8143 50 30.0253 50.4706 30.4591C50.9412 30.8929 51.2 31.397 51.2235 31.9832C51.2 33.2729 51.6706 34.3632 52.6471 35.2542C53.6471 36.1804 54.8353 36.6142 56.2235 36.5673C56.8588 36.5908 57.4 36.8252 57.8471 37.259C58.2941 37.6928 58.5177 38.2204 58.5177 38.8301C58.5177 39.4397 58.2824 39.9673 57.8 40.4011H57.8235ZM72.4235 33.6363C71.953 34.0701 71.3882 34.2929 70.7294 34.2929C69.4353 34.2929 68.2941 34.7149 67.2941 35.5825C66.5059 36.2625 65.9294 37.2121 65.8706 38.2321C65.8118 39.428 65.6353 40.8701 63.9294 41.21C62.3412 41.5149 60.9765 40.2721 60.9765 38.8301V38.7011C60.9294 37.4818 60.4235 36.4501 59.4824 35.5942C58.553 34.7384 57.4353 34.3046 56.1294 34.3046C55.4471 34.3046 54.8706 34.0818 54.4 33.648C53.9294 33.2142 53.6824 32.6749 53.6824 32.0418C53.6824 31.4087 53.9177 30.9163 54.4 30.4708C54.8706 30.037 55.4471 29.8143 56.1294 29.8143C56.7647 29.8143 57.3177 30.0253 57.7882 30.4356C58.2588 30.846 58.5059 31.3501 58.5412 31.9363C58.7177 36.1335 63.8706 38.0563 66.8941 35.1839C67.8471 34.2577 68.3059 33.1791 68.2824 31.9363C68.3059 31.3501 68.553 30.846 69.0353 30.4356C69.5059 30.0136 70.0706 29.8143 70.7294 29.8143C71.3882 29.8143 71.953 30.037 72.4235 30.4708C72.8941 30.9163 73.1412 31.4322 73.1412 32.0418C73.1412 32.6515 72.9059 33.2142 72.4235 33.648V33.6363Z" fill="url(#paint1_radial_161_83)"/>
</g>
<defs>
<radialGradient id="paint0_radial_161_83" cx="0" cy="0" r="1" gradientUnits="userSpaceOnUse" gradientTransform="translate(42.8471 65.7954) scale(17.4588 17.3985)">
<stop stop-color="white"/>
<stop offset="1" stop-color="#005087"/>
</radialGradient>
<radialGradient id="paint1_radial_161_83" cx="0" cy="0" r="1" gradientUnits="userSpaceOnUse" gradientTransform="translate(59.9412 2.71998) scale(37.0941 36.9659)">
<stop stop-color="#BEE1C6"/>
<stop offset="0.12" stop-color="#B0D9C5"/>
<stop offset="0.33" stop-color="#8DC4C3"/>
<stop offset="0.62" stop-color="#55A3C0"/>
<stop offset="0.96" stop-color="#0876BC"/>
<stop offset="1" stop-color="#0072BC"/>
</radialGradient>
<clipPath id="clip0_161_83">
<rect width="120" height="95" fill="white"/>
</clipPath>
</defs>
</svg>
