<svg width="207" height="30" viewBox="0 0 207 30" fill="none" xmlns="http://www.w3.org/2000/svg">
<path d="M205.62 15.4847C204.748 14.3122 203.388 13.3823 201.583 12.6748C200.649 12.3312 199.797 12.0481 198.965 11.846C198.153 11.6438 197.301 11.4417 196.429 11.2396C195.069 10.8959 194.156 10.532 193.69 10.1075C193.223 9.68299 192.979 9.11698 192.979 8.40945C192.979 7.92429 193.122 7.47956 193.426 7.09547C193.73 6.71139 194.075 6.40816 194.481 6.20601C194.988 5.96343 195.455 5.7815 195.922 5.70064C196.388 5.61978 196.895 5.57935 197.464 5.57935C198.945 5.57935 200.385 5.88257 201.785 6.48902C202.983 7.01461 203.997 7.62107 204.87 8.34881V1.94065C203.936 1.57678 202.881 1.27356 201.785 1.03098C200.243 0.687324 198.701 0.525604 197.139 0.525604C194.035 0.525604 191.458 1.33421 189.388 2.93119C187.319 4.54839 186.284 6.65074 186.284 9.25848C186.284 11.1789 186.71 12.7961 187.603 14.0696C188.475 15.3432 189.936 16.3742 191.965 17.1221C192.837 17.4455 193.791 17.7286 194.806 17.9509C195.82 18.1733 196.774 18.4159 197.667 18.6584C198.377 18.8606 198.985 19.1638 199.513 19.6086C200.02 20.0331 200.284 20.5991 200.284 21.3066C200.284 21.9333 200.122 22.4386 199.817 22.8025C199.513 23.1866 199.127 23.4696 198.661 23.692C198.275 23.8739 197.788 24.0154 197.18 24.0963C196.571 24.1771 196.064 24.2176 195.698 24.2176C194.217 24.2176 192.675 23.8941 191.093 23.2675C189.632 22.6812 188.292 21.8524 187.075 20.8012V27.553C188.11 27.9978 189.226 28.3616 190.382 28.6851C191.904 29.0894 193.669 29.2915 195.658 29.2915C199.127 29.2915 201.887 28.4425 203.936 26.7647C205.985 25.0868 207 22.8632 207 20.1139C207 18.1935 206.554 16.6369 205.681 15.4645L205.62 15.4847Z" fill="white"/>
<path d="M15.4408 12.1694C14.5075 11.8258 13.635 11.5428 12.8031 11.3406C11.9915 11.1385 11.119 10.9363 10.2465 10.7139C8.86679 10.3703 7.95374 10.0064 7.46677 9.58191C6.97981 9.1574 6.75662 8.59137 6.75662 7.88385C6.75662 7.39869 6.91894 6.95395 7.203 6.56987C7.50735 6.18579 7.85228 5.88257 8.27838 5.68042C8.78563 5.43784 9.27259 5.25591 9.73927 5.17505C10.2059 5.09419 10.7132 5.05375 11.3016 5.05375C12.8031 5.05375 14.2437 5.35698 15.664 5.96343C17.0843 6.56988 18.2814 7.31783 19.2553 8.20729H19.3162V1.63742C18.2205 1.17248 17.0031 0.788384 15.664 0.505375C14.1016 0.16172 12.5393 0 10.977 0C7.85228 0 5.23486 0.808609 3.14497 2.42581C1.05509 4.04301 0 6.14536 0 8.75309C0 10.6735 0.446383 12.2907 1.33915 13.5643C2.23192 14.8378 3.69281 15.8688 5.74211 16.6167C6.63488 16.9402 7.58851 17.203 8.60302 17.4455C9.61753 17.6679 10.5915 17.9105 11.4842 18.1531C12.1944 18.3552 12.8234 18.6584 13.3509 19.1032C13.8785 19.5479 14.1219 20.1139 14.1219 20.8012C14.1219 21.4279 13.9596 21.913 13.635 22.2971C13.3103 22.6812 12.9248 22.9642 12.4581 23.1866C12.0726 23.3685 11.5857 23.51 10.9567 23.5909C10.3277 23.6718 9.84072 23.7122 9.45521 23.7122C7.95373 23.7122 6.41168 23.3887 4.80876 22.7621C3.20584 22.1354 1.74495 21.2257 0.426093 20.0331H0.385513V26.8859C1.54205 27.3913 2.77975 27.8158 4.09861 28.1797C5.62037 28.584 7.4059 28.7861 9.43491 28.7861C12.9451 28.7861 15.7249 27.9371 17.7945 26.2593C19.864 24.5814 20.8988 22.3578 20.8988 19.5883C20.8988 17.6679 20.4525 16.1113 19.5597 14.9389C18.6669 13.7664 17.3075 12.8163 15.4611 12.129L15.4408 12.1694Z" fill="white"/>
<path d="M70.0212 1.03094H42.7715H39.7483V16.9401L31.3279 1.03094H22.7045L22.664 28.8265H28.7307L28.751 9.44039L39.4236 28.8063H45.815V6.32728H55.1079V28.8063H61.7428V6.32728H71.9081L70.0212 1.03094Z" fill="white"/>
<path d="M108.715 1.03094L102.1 28.8063H94.897L90.697 11.6236L86.6187 28.8063H79.4157L72.8011 1.03094H79.6186L83.2099 19.6692L87.5926 1.03094H94.1057L98.2652 19.6692L102.059 1.03094H108.694H108.715Z" fill="white"/>
<path d="M134.016 14.9186C134.016 19.4064 132.88 22.944 130.628 25.5113C128.376 28.0786 125.271 29.3723 121.335 29.3723C117.399 29.3723 114.294 28.0786 112.042 25.4708C109.79 22.8631 108.674 19.3457 108.674 14.9186C108.674 10.4916 109.79 6.91349 112.042 4.32597C114.294 1.73846 117.378 0.444702 121.335 0.444702C125.292 0.444702 128.355 1.73847 130.628 4.30577C132.88 6.89329 134.016 10.4309 134.016 14.9186ZM127.239 14.8984C127.239 13.2408 127.077 11.8257 126.752 10.6735C126.428 9.52122 126.002 8.55091 125.454 7.80295C124.886 7.03479 124.257 6.48899 123.547 6.16555C122.836 5.84211 122.106 5.68039 121.355 5.68039C120.544 5.68039 119.813 5.82189 119.164 6.14533C118.515 6.44855 117.886 6.99435 117.257 7.78273C116.729 8.51047 116.283 9.46059 115.958 10.6533C115.613 11.846 115.451 13.261 115.451 14.9186C115.451 16.5763 115.613 18.0317 115.918 19.1638C116.242 20.2958 116.668 21.2257 117.216 21.9939C117.784 22.7621 118.413 23.3079 119.123 23.6515C119.834 23.9749 120.584 24.1367 121.335 24.1367C122.086 24.1367 122.857 23.9547 123.587 23.6111C124.318 23.2472 124.947 22.7014 125.474 21.9534C126.042 21.1448 126.468 20.1947 126.773 19.1233C127.077 18.0519 127.219 16.6369 127.219 14.8984H127.239Z" fill="white"/>
<path d="M161.063 28.8063H153.069L145.785 18.618H143.431V28.8063H136.898V1.03094H147.408C148.848 1.03094 150.127 1.13202 151.202 1.31395C152.278 1.49589 153.272 1.9002 154.185 2.50665C155.118 3.13331 155.869 3.9419 156.417 4.93244C156.965 5.90276 157.249 7.15608 157.249 8.65199C157.249 10.7746 156.802 12.5131 155.889 13.827C154.996 15.1612 153.779 16.2124 152.278 16.9806L161.063 28.7861V28.8063ZM150.492 9.54145C150.492 8.85414 150.37 8.24769 150.106 7.74232C149.863 7.23694 149.437 6.85286 148.848 6.56985C148.443 6.38791 147.976 6.26663 147.489 6.2262C146.982 6.18577 146.353 6.14533 145.602 6.14533H143.411V13.6249H145.298C146.211 13.6249 146.982 13.5642 147.631 13.4429C148.26 13.3217 148.808 13.0791 149.254 12.695C149.68 12.3513 149.985 11.9268 150.188 11.4417C150.391 10.9565 150.492 10.3298 150.492 9.54145Z" fill="white"/>
<path d="M185.614 28.8063H177.579L170.356 17.5062L169.057 19.4064V28.7861H162.402V1.01074H169.057V13.3419L177.518 1.01074H185.208L175.774 13.9079L185.614 28.8063Z" fill="white"/>
</svg>
